<?xml version="1.0" standalone="no"?>
<!DOCTYPE svg PUBLIC "-//W3C//DTD SVG 20010904//EN"
 "http://www.w3.org/TR/2001/REC-SVG-20010904/DTD/svg10.dtd">
<svg version="1.0" xmlns="http://www.w3.org/2000/svg"
 width="700.000000pt" height="700.000000pt" viewBox="0 0 700.000000 700.000000"
 preserveAspectRatio="xMidYMid meet">
<metadata>
Created by potrace 1.14, written by Peter Selinger 2001-2017
</metadata>
<g transform="translate(0.000000,700.000000) scale(0.100000,-0.100000)"
fill="#000000" stroke="none">
<path d="M3353 6912 c-28 -10 -69 -31 -90 -47 -66 -50 -3169 -3159 -3197
-3203 -77 -123 -62 -293 37 -408 38 -43 133 -100 182 -108 17 -2 661 -5 1433
-5 l1402 -1 0 -1398 c0 -1535 -3 -1466 60 -1557 68 -98 179 -155 293 -149 66
3 113 17 166 47 20 11 750 734 1622 1606 1290 1289 1592 1596 1615 1641 26 49
29 65 29 150 0 76 -4 104 -21 141 -40 85 -126 161 -216 191 -23 7 -458 11
-1438 13 -773 2 -1409 3 -1415 4 -7 1 -10 474 -9 1398 1 1090 -2 1409 -12
1446 -26 99 -94 181 -189 227 -67 32 -180 38 -252 12z m-233 -2124 l0 -963
-964 0 c-835 0 -963 2 -953 14 20 25 1908 1911 1913 1911 2 0 4 -433 4 -962z
m2610 -1654 c0 -9 -1917 -1924 -1921 -1919 -3 3 -3 1843 0 1908 1 16 54 17
961 17 528 0 960 -3 960 -6z"/>
</g>
</svg>
